<svg id="Layer_1" data-name="Layer 1" xmlns="http://www.w3.org/2000/svg" viewBox="0 0 383.39 271.01">
  <title>bubbles</title>
  <path d="M143.52,117.73h4.95l11.25,32.85H155L152.07,142H139.88L137,150.58h-4.73Zm-2.11,19.8h9.13L146,124Z" fill="current"/>
  <path d="M163.32,116.38h4.46v14.85l.27.22.22-.22a8.65,8.65,0,0,1,5.85-2.25,11,11,0,0,1,0,22.05,8.55,8.55,0,0,1-5.85-2.25l-.22-.23-.27.23-.41,1.8h-4.05ZM173.9,147c4.27,0,6.52-3.15,6.52-7s-2.25-7-6.52-7c-3.83,0-6.53,3.15-6.53,7S170.07,147,173.9,147Z" fill="current"/>
  <path d="M198.65,129a11,11,0,1,1-11,11A10.89,10.89,0,0,1,198.65,129Zm0,18c4.27,0,6.52-3.15,6.52-7s-2.25-7-6.52-7-6.53,3.15-6.53,7S194.37,147,198.65,147Z" fill="current"/>
  <path d="M231.72,150.58h-4.05l-.45-1.8-.22-.23-.23.23a6.45,6.45,0,0,1-5,2.25c-5.4,0-8.55-3.6-8.55-8.55v-13h4.5v13c.09,2.88,1.49,4.5,4.5,4.5a5,5,0,0,0,4.95-4.73V129.43h4.5Z" fill="current"/>
  <path d="M234.87,129.43H239v-4.5l3.55-4.5h.86v9h4.54v4h-4.54v10.8a2.16,2.16,0,0,0,2.29,2.25l2.7-.45v4l-2.47.45c-4.5,0-6.93-2.25-6.93-6.3v-10.8h-4.1Z" fill="current"/>
</svg>