<svg id="Layer_1" data-name="Layer 1" xmlns="http://www.w3.org/2000/svg" viewBox="0 0 383.39 271.01">

  <path
    d="M89.48,77.41a16.63,16.63,0,0,1,13,6.3l-3.15,3.15a11.29,11.29,0,0,0-9.68-5c-7.65,0-12.33,5.62-12.33,12.87s4.68,12.87,12.56,12.87a11.3,11.3,0,0,0,9.67-5l3.15,3.15a16.63,16.63,0,0,1-13,6.3c-9.9,0-17.1-7.65-17.1-17.28S79.8,77.41,89.48,77.41Z"
    fill="current" />
  <path
    d="M116,89.56a11,11,0,1,1-11,11A10.89,10.89,0,0,1,116,89.56Zm0,18c4.27,0,6.52-3.15,6.52-7s-2.25-7-6.52-7-6.53,3.15-6.53,7S111.75,107.56,116,107.56Z"
    fill="current" />
  <path
    d="M131.1,90h4.05l.45,1.8.23.23.22-.23A6.45,6.45,0,0,1,141,89.56c5.4,0,8.55,3.6,8.55,8.55v13h-4.5v-13c-.13-2.88-1.53-4.5-4.5-4.5a5,5,0,0,0-5,4.77v12.78h-4.5Z"
    fill="current" />
  <path
    d="M152,90h4.09v-4.5l3.56-4.5h.85v9h4.55v4h-4.55v10.8a2.17,2.17,0,0,0,2.3,2.25l2.7-.45v4l-2.48.45c-4.5,0-6.93-2.25-6.93-6.3V94.06H152Z"
    fill="current" />
  <path
    d="M189.15,111.16H185.1l-.45-1.8-.22-.23-.23.23a8.55,8.55,0,0,1-5.85,2.25,11,11,0,0,1,0-22,8.55,8.55,0,0,1,5.85,2.25l.23.23.22-.23.45-1.8h4.05ZM178.58,93.61c-4.28,0-6.57,3.15-6.57,7s2.29,7,6.57,7c3.82,0,6.52-3.15,6.52-7S182.4,93.61,178.58,93.61Z"
    fill="current" />
  <path
    d="M197.25,106a8.14,8.14,0,0,1-4.05-7.2,9.13,9.13,0,0,1,9.23-9.23c2,0,4.27.9,5.17,2.25l.23.23.22-.23.45-1.8h3.15v8.78a8.14,8.14,0,0,1-4.05,7.2,7.19,7.19,0,0,1,4.05,6.56c0,5-4.5,8-9.22,8s-9.23-3-9.23-8A7.28,7.28,0,0,1,197.25,106Zm5.18-2a5.18,5.18,0,1,0-5-5.17A4.91,4.91,0,0,0,202.43,104Zm0,12.74c2.92,0,4.95-1.71,4.95-4.19s-2-4.27-4.95-4.27-5,1.8-5,4.27S199.5,116.7,202.43,116.7Z"
    fill="current" />
  <path d="M216.38,81h4.5V86h-4.5Zm0,9h4.41v21.15h-4.41Z" fill="current" />
  <path
    d="M236,89.56a11,11,0,1,1-11,11A10.89,10.89,0,0,1,236,89.56Zm0,18c4.27,0,6.52-3.15,6.52-7s-2.25-7-6.52-7-6.53,3.15-6.53,7S231.67,107.56,236,107.56Z"
    fill="current" />
  <path
    d="M269,111.16h-4l-.45-1.8-.22-.23-.23.23a6.45,6.45,0,0,1-4.95,2.25c-5.4,0-8.55-3.6-8.55-8.55V90h4.5v13c.09,2.88,1.49,4.5,4.5,4.5a5,5,0,0,0,4.95-4.72V90H269Z"
    fill="current" />
  <path
    d="M272.62,105.31l4.05-1.57a4.27,4.27,0,0,0,4.28,3.91c2.25,0,3.37-1.21,3.37-2.56s-.9-2-2.7-2.3c-.76-.13-1.53-.31-2.25-.49-3.6-.9-6.07-3.06-6.07-6.44,0-4,3.82-6.3,7.42-6.3,3.83,0,7.2,2.48,7.65,6.3h-4.5c0-1.35-1.35-2.34-3.15-2.34s-3.15,1-3.15,2.34,1.08,2.12,2.7,2.43l2.25.45c3.51.77,6.08,2.75,6.08,6.35s-3.38,6.52-7.65,6.52A8.1,8.1,0,0,1,272.62,105.31Z"
    fill="current" />
  <path
    d="M89.25,140.86c0-2.7-2.47-5-5.62-5-3.33,0-5.4,2-5.4,4.73,0,2.47,1.57,4.23,5.17,5.17,1.22.32,2.43.59,3.6.86,4.5,1.08,8.1,3.87,8.1,9.49,0,5-4,9.81-11,9.81-6.12,0-11.39-4.77-11.48-9.81l4.73-1.8a6.73,6.73,0,0,0,6.75,7.07c3.82,0,6.3-2.12,6.3-5.27,0-3.37-2.93-4.5-5.18-4.95-1.08-.22-2.47-.58-3.6-.94-4.27-1.31-8.1-4.23-8.1-9.86,0-5.17,4.46-8.91,10.13-8.91,5.85,0,10.57,4,10.57,9.36Z"
    fill="current" />
  <path
    d="M100.05,144h4l.41,1.8.27.23.22-.23a8.55,8.55,0,0,1,5.85-2.25,11,11,0,0,1,0,22.05,8.65,8.65,0,0,1-5.85-2.25l-.22-.23-.27.23V174.7h-4.46Zm10.58,17.55c4.27,0,6.52-3.15,6.52-7s-2.25-7-6.52-7c-3.83,0-6.53,3.15-6.53,7S106.8,161.56,110.63,161.56Z"
    fill="current" />
  <path
    d="M128.85,155.71a5.73,5.73,0,0,0,6.08,5.85c2.7,0,4.54-1.35,5.22-3.15l3.78,1.8a10.33,10.33,0,0,1-9.23,5.4c-5.62,0-10.35-4.5-10.35-11s4.5-11,10.35-11c5.4,0,9.9,4.28,9.9,10.8l-.45,1.35Zm.23-4h10.8a5,5,0,0,0-5.18-4.14A5.45,5.45,0,0,0,129.08,151.75Z"
    fill="current" />
  <path
    d="M151.58,155.71a5.73,5.73,0,0,0,6.07,5.85c2.7,0,4.55-1.35,5.22-3.15l3.78,1.8a10.33,10.33,0,0,1-9.22,5.4c-5.63,0-10.35-4.5-10.35-11s4.5-11,10.35-11c5.4,0,9.9,4.28,9.9,10.8l-.45,1.35Zm.22-4h10.8a5,5,0,0,0-5.17-4.14A5.47,5.47,0,0,0,151.8,151.75Z"
    fill="current" />
  <path
    d="M180.83,161.56a6,6,0,0,0,5.49-3.6l3.51,2.25a10.28,10.28,0,0,1-9.23,5.4,11,11,0,0,1,0-22.05,10.19,10.19,0,0,1,9.18,5.4l-3.51,2.25a5.93,5.93,0,0,0-5.44-3.6c-4.28,0-6.62,3.15-6.62,7S176.55,161.56,180.83,161.56Z"
    fill="current" />
  <path
    d="M193.2,131h4.5v14.85l.23.23.22-.23a6.45,6.45,0,0,1,4.95-2.25c5.4,0,8.55,3.6,8.55,8.55v13h-4.5v-13c-.13-2.88-1.53-4.5-4.5-4.5a5,5,0,0,0-5,4.77v12.78h-4.5Z"
    fill="current" />
</svg>