<svg id="Layer_1" data-name="Layer 1" xmlns="http://www.w3.org/2000/svg" viewBox="0 0 383.39 271.01">
  <title>bubbles</title>
  <g id="Live_Stream" data-name="Live  Stream">
    <path d="M120.4,78h4.73v28.35h13.72v4.5H120.4Z" fill="current"/>
    <path d="M143.35,80.71h4.5v5h-4.5Zm.05,9h4.41v21.15H143.4Z" fill="current"/>
    <path d="M165.85,89.71h4.5l-7.65,21.15h-4L151,89.71h4.5l5.18,15.12Z" fill="current"/>
    <path d="M176.2,101.41a5.73,5.73,0,0,0,6.08,5.85c2.7,0,4.54-1.35,5.22-3.15l3.78,1.8a10.33,10.33,0,0,1-9.23,5.4c-5.62,0-10.35-4.5-10.35-11s4.5-11,10.35-11c5.4,0,9.9,4.27,9.9,10.8l-.45,1.35Zm.23-4h10.8a5,5,0,0,0-5.18-4.14A5.45,5.45,0,0,0,176.43,97.45Z" fill="current"/>
    <path d="M135.25,140.56c0-2.7-2.47-4.95-5.62-4.95-3.33,0-5.4,2-5.4,4.72,0,2.48,1.57,4.23,5.17,5.18,1.22.31,2.43.58,3.6.85,4.5,1.08,8.1,3.87,8.1,9.5,0,4.95-4,9.81-11,9.81-6.12,0-11.39-4.77-11.48-9.81l4.73-1.8a6.73,6.73,0,0,0,6.75,7.06c3.82,0,6.3-2.11,6.3-5.26,0-3.38-2.93-4.5-5.18-5-1.08-.23-2.47-.59-3.6-.95-4.27-1.3-8.1-4.23-8.1-9.85,0-5.18,4.46-8.91,10.13-8.91,5.85,0,10.57,4,10.57,9.36Z" fill="current"/>
    <path d="M142.9,143.71H147v-4.5l3.55-4.5h.86v9H156v4h-4.54v10.8a2.16,2.16,0,0,0,2.29,2.25l2.7-.45v4l-2.47.45c-4.5,0-6.93-2.25-6.93-6.3v-10.8h-4.1Z" fill="current"/>
    <path d="M160.45,143.71h4.05L165,146l.23.22.22-.22a6.22,6.22,0,0,1,4.95-2.7,4.06,4.06,0,0,1,2.25.45v4h-2.7a5,5,0,0,0-5,4.77v12.33h-4.5Z" fill="current"/>
    <path d="M178,155.41a5.73,5.73,0,0,0,6.08,5.85c2.7,0,4.54-1.35,5.22-3.15l3.78,1.8a10.33,10.33,0,0,1-9.23,5.4c-5.62,0-10.35-4.5-10.35-11s4.5-11,10.35-11c5.4,0,9.9,4.27,9.9,10.8l-.45,1.35Zm.23-4H189a5,5,0,0,0-5.18-4.14A5.45,5.45,0,0,0,178.23,151.45Z" fill="current"/>
    <path d="M217.83,164.86h-4.05l-.45-1.8-.23-.23-.22.23a8.55,8.55,0,0,1-5.85,2.25,11,11,0,0,1,0-22.05,8.55,8.55,0,0,1,5.85,2.25l.22.22.23-.22.45-1.8h4.05Zm-10.58-17.55c-4.27,0-6.57,3.15-6.57,7s2.3,7,6.57,7c3.83,0,6.53-3.15,6.53-7S211.08,147.31,207.25,147.31Z" fill="current"/>
    <path d="M241,145.51a7.34,7.34,0,0,1,5.18-2.25c4.95,0,7.65,3.15,7.65,7.65v14h-4.5v-13.5c0-2.7-1.35-4.05-3.6-4.05a5,5,0,0,0-4.95,4.77v12.78h-4.5v-13.5c0-2.7-1.35-4.05-3.6-4.05a5,5,0,0,0-5,4.77v12.78h-4.5V143.71h4.05l.45,1.8.22.22.23-.22a6.45,6.45,0,0,1,4.95-2.25c3.24,0,5.58,1.39,6.75,3.6Z" fill="current"/>
  </g>
</svg>