<svg id="Layer_1" data-name="Layer 1" xmlns="http://www.w3.org/2000/svg" viewBox="0 0 383.39 271.01">

  <path
    d="M70.93,116.32A17.37,17.37,0,0,1,84.83,144l5.22,5.13v.9H84.74l-3-2.83A17.37,17.37,0,0,1,70.93,151a17.33,17.33,0,1,1,0-34.65Zm.67,21.15,3.15-3.37,6.8,6.75a13.49,13.49,0,0,0,2-7.2c0-7.47-5.18-12.83-12.6-12.83s-12.65,5.36-12.65,12.83,5.22,12.82,12.65,12.82a12.89,12.89,0,0,0,7.6-2.34Z"
    fill="current" />
  <path
    d="M111.2,150.07h-4l-.45-1.8-.22-.22-.23.22a6.45,6.45,0,0,1-5,2.25c-5.4,0-8.55-3.6-8.55-8.55V128.92h4.5V142c.09,2.88,1.49,4.5,4.5,4.5a5,5,0,0,0,5-4.72V128.92h4.5Z"
    fill="current" />
  <path
    d="M119.75,140.62a5.73,5.73,0,0,0,6.08,5.85c2.7,0,4.54-1.35,5.22-3.15l3.78,1.8a10.33,10.33,0,0,1-9.23,5.4c-5.62,0-10.35-4.5-10.35-11s4.5-11,10.35-11c5.4,0,9.9,4.28,9.9,10.8l-.45,1.35Zm.23-4h10.8a5,5,0,0,0-5.18-4.14A5.45,5.45,0,0,0,120,136.66Z"
    fill="current" />
  <path
    d="M137.53,144.22l4.05-1.57a4.26,4.26,0,0,0,4.27,3.91c2.25,0,3.38-1.21,3.38-2.56s-.9-2-2.7-2.3c-.77-.13-1.53-.31-2.25-.49-3.6-.9-6.08-3.06-6.08-6.44,0-4.05,3.83-6.3,7.43-6.3,3.82,0,7.2,2.48,7.65,6.3h-4.5c0-1.35-1.35-2.34-3.15-2.34s-3.15,1-3.15,2.34,1.08,2.12,2.7,2.43l2.25.45c3.51.77,6.07,2.75,6.07,6.35s-3.37,6.52-7.65,6.52A8.09,8.09,0,0,1,137.53,144.22Z"
    fill="current" />
  <path
    d="M154.85,128.92H159v-4.5l3.55-4.5h.86v9h4.54V133h-4.54v10.8a2.16,2.16,0,0,0,2.29,2.25l2.7-.45v4.05l-2.47.45c-4.5,0-6.93-2.25-6.93-6.3V133h-4.1Z"
    fill="current" />
  <path d="M172.4,119.92h4.5v5h-4.5Zm0,9h4.41v21.15h-4.41Z" fill="current" />
  <path
    d="M192,128.47a11,11,0,1,1-11,11A10.9,10.9,0,0,1,192,128.47Zm0,18c4.28,0,6.53-3.15,6.53-7s-2.25-7-6.53-7-6.52,3.15-6.52,7S187.7,146.47,192,146.47Z"
    fill="current" />
  <path
    d="M207.05,128.92h4l.45,1.8.22.23.23-.23a6.45,6.45,0,0,1,4.95-2.25c5.4,0,8.55,3.6,8.55,8.55v13H221V137c-.14-2.88-1.53-4.5-4.5-4.5a5,5,0,0,0-4.95,4.77v12.78h-4.5Z"
    fill="current" />
  <path
    d="M230.45,128.92h4.05l.45,1.8.22.23.23-.23a6.45,6.45,0,0,1,4.95-2.25c5.4,0,8.55,3.6,8.55,8.55v13h-4.5V137c-.14-2.88-1.53-4.5-4.5-4.5a5,5,0,0,0-5,4.77v12.78h-4.5Z"
    fill="current" />
  <path
    d="M274.1,150.07h-4.05l-.45-1.8-.23-.22-.22.22a8.55,8.55,0,0,1-5.85,2.25,11,11,0,0,1,0-22.05,8.55,8.55,0,0,1,5.85,2.25l.22.23.23-.23.45-1.8h4.05Zm-10.58-17.55c-4.27,0-6.57,3.15-6.57,7s2.3,7,6.57,7c3.83,0,6.53-3.15,6.53-7S267.35,132.52,263.52,132.52Z"
    fill="current" />
  <path d="M279.5,119.92H284v5h-4.5Zm0,9H284v21.15h-4.41Z" fill="current" />
  <path
    d="M289.4,128.92h4.05l.45,2.25.22.23.23-.23a6.22,6.22,0,0,1,4.95-2.7,4.06,4.06,0,0,1,2.25.45V133h-2.7a5,5,0,0,0-5,4.77v12.33h-4.5Z"
    fill="current" />
  <path
    d="M307,140.62a5.73,5.73,0,0,0,6.07,5.85c2.7,0,4.55-1.35,5.22-3.15l3.78,1.8a10.33,10.33,0,0,1-9.22,5.4c-5.63,0-10.35-4.5-10.35-11s4.5-11,10.35-11c5.4,0,9.9,4.28,9.9,10.8l-.45,1.35Zm.22-4H318a5,5,0,0,0-5.17-4.14A5.47,5.47,0,0,0,307.17,136.66Z"
    fill="current" />
</svg>