<svg id="Layer_1" data-name="Layer 1" xmlns="http://www.w3.org/2000/svg" viewBox="0 0 383.39 271.01">

  <path d="M92.28,79.45h21.6V84L96.64,107.8h16.79v4.5H91.38v-4.5L108.61,84H92.28Z" fill="current" />
  <path
    d="M126.7,90.7a11,11,0,1,1-11,11A10.9,10.9,0,0,1,126.7,90.7Zm0,18c4.28,0,6.53-3.15,6.53-7s-2.25-7-6.53-7-6.52,3.15-6.52,7S122.43,108.7,126.7,108.7Z"
    fill="current" />
  <path
    d="M151.45,90.7a11,11,0,1,1-11,11A10.9,10.9,0,0,1,151.45,90.7Zm0,18c4.28,0,6.53-3.15,6.53-7s-2.25-7-6.53-7-6.52,3.15-6.52,7S147.18,108.7,151.45,108.7Z"
    fill="current" />
  <path
    d="M184.3,93a7.31,7.31,0,0,1,5.18-2.25c4.94,0,7.64,3.15,7.64,7.65v14h-4.5V98.8c0-2.7-1.34-4-3.59-4a5,5,0,0,0-4.95,4.77V112.3h-4.5V98.8c0-2.7-1.35-4-3.6-4A5,5,0,0,0,171,99.52V112.3h-4.5V91.15h4.05L171,93l.22.22.23-.22a6.45,6.45,0,0,1,5-2.25c3.23,0,5.58,1.39,6.75,3.6Z"
    fill="current" />
  <path
    d="M93.63,133.45h11.92c5.85,0,10.13,3.82,10.13,9.45s-4.28,9.45-10.13,9.45h-7.2v14H93.63Zm12.15,14.4c2.7,0,5.17-1.58,5.17-4.95s-2.47-5-5.17-5H98.35v9.9Z"
    fill="current" />
  <path
    d="M120.63,156.85a5.73,5.73,0,0,0,6.07,5.85c2.7,0,4.55-1.35,5.22-3.15l3.78,1.8a10.33,10.33,0,0,1-9.22,5.4c-5.63,0-10.35-4.5-10.35-11s4.5-11,10.35-11c5.4,0,9.9,4.27,9.9,10.8l-.45,1.35Zm.22-4h10.8a5,5,0,0,0-5.17-4.14A5.47,5.47,0,0,0,120.85,152.89Z"
    fill="current" />
  <path
    d="M140.2,145.15h4.05l.45,2.25.23.22.22-.22a6.22,6.22,0,0,1,4.95-2.7,4.06,4.06,0,0,1,2.25.45v4h-2.7a5,5,0,0,0-5,4.77V166.3h-4.5Z"
    fill="current" />
  <path
    d="M153.7,145.15h3.6v-6.3c0-4,2.25-6.75,6.75-6.75l2.25.45v4l-2.47-.45c-1.35,0-2,.9-2,2.25v6.75h4.5v4h-4.5v17.1h-4.5V149.2h-3.6Z"
    fill="current" />
  <path
    d="M178.45,144.7a11,11,0,1,1-11,11A10.9,10.9,0,0,1,178.45,144.7Zm0,18c4.28,0,6.53-3.15,6.53-7s-2.25-7-6.53-7-6.52,3.15-6.52,7S174.18,162.7,178.45,162.7Z"
    fill="current" />
  <path
    d="M193.53,145.15h4.05l.45,2.25.22.22.23-.22a6.22,6.22,0,0,1,5-2.7,4.06,4.06,0,0,1,2.25.45v4H203A5,5,0,0,0,198,154V166.3h-4.5Z"
    fill="current" />
  <path
    d="M226.6,147a7.33,7.33,0,0,1,5.18-2.25c4.94,0,7.64,3.15,7.64,7.65v14h-4.5V152.8c0-2.7-1.34-4.05-3.59-4.05a5,5,0,0,0-5,4.77V166.3h-4.5V152.8c0-2.7-1.34-4.05-3.59-4.05a5,5,0,0,0-4.95,4.77V166.3h-4.5V145.15h4l.45,1.8.22.22.23-.22a6.45,6.45,0,0,1,4.95-2.25c3.24,0,5.58,1.39,6.75,3.6Z"
    fill="current" />
  <path
    d="M264.62,166.3h-4l-.46-1.8-.22-.23-.23.23a8.51,8.51,0,0,1-5.84,2.25,11,11,0,0,1,0-22.05,8.51,8.51,0,0,1,5.84,2.25l.23.22.22-.22.46-1.8h4Zm-10.57-17.55c-4.27,0-6.57,3.15-6.57,7s2.3,7,6.57,7c3.82,0,6.53-3.15,6.53-7S257.87,148.75,254.05,148.75Z"
    fill="current" />
  <path
    d="M270,145.15h4.05l.44,1.8.23.22L275,147a6.45,6.45,0,0,1,4.95-2.25c5.4,0,8.55,3.6,8.55,8.55V166.3H284V153.25c-.13-2.88-1.53-4.5-4.5-4.5a5,5,0,0,0-5,4.77V166.3H270Z"
    fill="current" />
  <path
    d="M303.1,162.7a6,6,0,0,0,5.49-3.6l3.51,2.25a10.28,10.28,0,0,1-9.23,5.4,11,11,0,0,1,0-22.05,10.19,10.19,0,0,1,9.18,5.4l-3.51,2.25a5.93,5.93,0,0,0-5.44-3.6c-4.28,0-6.62,3.15-6.62,7S298.82,162.7,303.1,162.7Z"
    fill="current" />
  <path
    d="M318.62,156.85a5.73,5.73,0,0,0,6.08,5.85c2.7,0,4.54-1.35,5.22-3.15l3.78,1.8a10.33,10.33,0,0,1-9.23,5.4c-5.62,0-10.35-4.5-10.35-11s4.5-11,10.35-11c5.4,0,9.9,4.27,9.9,10.8l-.45,1.35Zm.23-4h10.8a5,5,0,0,0-5.18-4.14A5.45,5.45,0,0,0,318.85,152.89Z"
    fill="current" />
</svg>